# xmcd
#
# Track frame offsets: 
#        150
#        14935
#        27835
#        40575
#        52325
#        64300
#        76700
#        90512
#        103680
#        117385
#        129735
#        141660
#        154120
#        168500
#        181250
#        193892
#        207767
#        221125
#        233095
#        245840
#        258782
#        270732
#        284415
#        295875
#        309587
#        321365
#        332940
#        345542
#
# Disc length: 4746 seconds
#
# Revision: 1
# Processed by: cddbd v1.5.2PL0 Copyright (c) Steve Scherf et al.
# Submitted via: ExactAudioCopy v1.3
#
DISCID=ba12881c
DTITLE=Merle Travis - Guitar Rags And A Too Fast Past_CD1
DYEAR=1994
DGENRE=Country
TTITLE0=You'll Be Lonsome, Too
TTITLE1=The Steppin' Out Kind
TTITLE2=When Mussolini Laid His Pistol Down
TTITLE3=Two Time Annie
TTITLE4=What Willi Do
TTITLE5=So Long, Farwell, Goodbye
TTITLE6=God Put a Rainbow in the Clouds
TTITLE7=It May Be Too Late
TTITLE8=Be On Your Way
TTITLE9=Rainin' On The Mountain
TTITLE10=Give Me Your Hand
TTITLE11=Out On The Open Range
TTITLE12=Ridin' Down To Santa Fe
TTITLE13=Homey Grits
TTITLE14=That's All
TTITLE15=Boogie Woogie Boy
TTITLE16=Boogie Woogie Boy (alt)
TTITLE17=I Used To Work In Chicago
TTITLE18=Merle's Buck Dance
TTITLE19=Steel Guitar Stomp
TTITLE20=I Used To Work In Chicago (alt)
TTITLE21=I'm All Through Trusting You
TTITLE22=Weary Lonsome Me
TTITLE23=No Vacancy
TTITLE24=Cincinnati Lou
TTITLE25=Two Is A Couple (And Three Is A Crowd) 
TTITLE26=What A Shame
TTITLE27=T For Texas (Blue Yodel #1)
EXTD=Volume 1 of a 5 volume box set.\nRecordings 1943-1946
EXTT0=As Sheppard Brothers
EXTT1=As Sheppard Brothers
EXTT2=As Bob McCarthy
EXTT3=As Bob McCarthy
EXTT4=
EXTT5=With Granpa Jones
EXTT6=With Wesley Tuttle
EXTT7=With Wesley Tuttle
EXTT8=With Wesley Tuttle
EXTT9=With Wesley Tuttle
EXTT10=With Wesley Tuttle
EXTT11=With Wesley Tuttle and Shug Fisher
EXTT12=With Shug Fisher
EXTT13=As Tem Martin
EXTT14=
EXTT15=With Porky Freeman Trio
EXTT16=With Porky Freeman Trio
EXTT17=As Tin Ear Tanner
EXTT18=With Hank Penny
EXTT19=With Hank Penny
EXTT20=As Dusty Ward
EXTT21=As Dusty Ward
EXTT22=
EXTT23=
EXTT24=
EXTT25=
EXTT26=
EXTT27=
PLAYORDER=
